<?xml version="1.0" encoding="UTF-8" standalone="no"?>
<!-- Created with Inkscape (http://www.inkscape.org/) -->

<svg
   width="297mm"
   height="210mm"
   viewBox="0 0 297 210"
   version="1.1"
   id="svg1"
   inkscape:version="1.4.2 (ebf0e94, 2025-05-08)"
   sodipodi:docname="Laser PMMA Noir 3mm 003.svg"
   xmlns:inkscape="http://www.inkscape.org/namespaces/inkscape"
   xmlns:sodipodi="http://sodipodi.sourceforge.net/DTD/sodipodi-0.dtd"
   xmlns="http://www.w3.org/2000/svg"
   xmlns:svg="http://www.w3.org/2000/svg">
  <sodipodi:namedview
     id="namedview1"
     pagecolor="#505050"
     bordercolor="#eeeeee"
     borderopacity="1"
     inkscape:showpageshadow="0"
     inkscape:pageopacity="0"
     inkscape:pagecheckerboard="0"
     inkscape:deskcolor="#505050"
     inkscape:document-units="mm"
     inkscape:zoom="1.3915123"
     inkscape:cx="246.13508"
     inkscape:cy="220.98259"
     inkscape:window-width="1920"
     inkscape:window-height="957"
     inkscape:window-x="1920"
     inkscape:window-y="32"
     inkscape:window-maximized="1"
     inkscape:current-layer="layer1" />
  <defs
     id="defs1" />
  <g
     inkscape:label="Calque 1"
     inkscape:groupmode="layer"
     id="layer1">
    <g
       id="g52-3"
       transform="matrix(0.1,0,0,0.1,-90.078345,-4.7220928)"
       style="stroke:#ff0000">
      <g
         fill="#f1f3f5"
         fill-opacity="0"
         font-family="'Sans Serif'"
         font-size="31.75px"
         font-style="normal"
         font-weight="400"
         stroke="none"
         transform="translate(1317.04,460.659)"
         id="g37-1"
         style="fill-rule:evenodd;stroke:#ff0000;stroke-width:1;stroke-linecap:square;stroke-linejoin:bevel">
        <path
           d="M 400,0 C 400,220.914 220.914,400 0,400 -220.914,400 -400,220.914 -400,0 c 0,-220.914 179.086,-400 400,-400 220.914,0 400,179.086 400,400"
           fill-rule="evenodd"
           vector-effect="non-scaling-stroke"
           id="path37-9"
           style="stroke:#ff0000" />
      </g>
      <g
         fill="#f1f3f5"
         fill-opacity="0"
         font-family="'Sans Serif'"
         font-size="31.75px"
         font-style="normal"
         font-weight="400"
         stroke="none"
         transform="translate(1317.04,460.659)"
         id="g38-4"
         style="fill-rule:evenodd;stroke:#ff0000;stroke-width:1;stroke-linecap:square;stroke-linejoin:bevel">
        <path
           d="m -287.109,-175 c 0,8.837 -7.163,16 -16,16 -8.836,0 -16,-7.163 -16,-16 0,-8.837 7.164,-16 16,-16 8.837,0 16,7.163 16,16"
           fill-rule="evenodd"
           vector-effect="non-scaling-stroke"
           id="path38-7"
           style="stroke:#ff0000" />
      </g>
      <g
         fill="#f1f3f5"
         fill-opacity="0"
         font-family="'Sans Serif'"
         font-size="31.75px"
         font-style="normal"
         font-weight="400"
         stroke="none"
         transform="translate(1317.04,460.659)"
         id="g39-8"
         style="fill-rule:evenodd;stroke:#ff0000;stroke-width:1;stroke-linecap:square;stroke-linejoin:bevel">
        <path
           d="m 319.109,175 c 0,8.837 -7.164,16 -16,16 -8.837,0 -16,-7.163 -16,-16 0,-8.837 7.163,-16 16,-16 8.836,0 16,7.163 16,16"
           fill-rule="evenodd"
           vector-effect="non-scaling-stroke"
           id="path39-4"
           style="stroke:#ff0000" />
      </g>
      <g
         fill="#f1f3f5"
         fill-opacity="0"
         font-family="'Sans Serif'"
         font-size="31.75px"
         font-style="normal"
         font-weight="400"
         stroke="none"
         transform="translate(1317.04,460.659)"
         id="g40-5"
         style="fill-rule:evenodd;stroke:#ff0000;stroke-width:1;stroke-linecap:square;stroke-linejoin:bevel">
        <path
           d="m -287.109,175 c 0,8.837 -7.163,16 -16,16 -8.836,0 -16,-7.163 -16,-16 0,-8.837 7.164,-16 16,-16 8.837,0 16,7.163 16,16"
           fill-rule="evenodd"
           vector-effect="non-scaling-stroke"
           id="path40-0"
           style="stroke:#ff0000" />
      </g>
      <g
         fill="#f1f3f5"
         fill-opacity="0"
         font-family="'Sans Serif'"
         font-size="31.75px"
         font-style="normal"
         font-weight="400"
         stroke="none"
         transform="translate(1317.04,460.659)"
         id="g41-3"
         style="fill-rule:evenodd;stroke:#ff0000;stroke-width:1;stroke-linecap:square;stroke-linejoin:bevel">
        <path
           d="m 319.109,-175 c 0,8.837 -7.164,16 -16,16 -8.837,0 -16,-7.163 -16,-16 0,-8.837 7.163,-16 16,-16 8.836,0 16,7.163 16,16"
           fill-rule="evenodd"
           vector-effect="non-scaling-stroke"
           id="path41-6"
           style="stroke:#ff0000" />
      </g>
    </g>
    <g
       id="g106"
       transform="matrix(0.1,0,0,0.1,53.275675,-93.19305)"
       style="stroke:#ff0000">
      <g
         fill="#f1f3f5"
         fill-opacity="0"
         font-family="'Sans Serif'"
         font-size="31.75px"
         font-style="normal"
         font-weight="400"
         stroke="none"
         transform="translate(648.136,1276.9)"
         id="g52"
         style="fill-rule:evenodd;stroke:#ff0000;stroke-width:1;stroke-linecap:square;stroke-linejoin:bevel">
        <path
           d="m -260.594,215.114 c -7.094,11.459 -5.675,26.242 3.469,36.143 32.31,34.986 71.421,63.011 114.938,82.358 9.28,4.126 20.017,3.276 28.533,-2.257 8.516,-5.534 13.654,-15 13.654,-25.156 v -69.454 c 0,-16.568 13.4315,-30 30,-30 H 70 c 16.5685,0 30,13.432 30,30 v 69.454 c 0,10.156 5.138,19.622 13.654,25.156 8.516,5.533 19.253,6.383 28.534,2.257 43.516,-19.347 82.627,-47.372 114.937,-82.358 9.144,-9.901 10.563,-24.684 3.469,-36.143 -9.69,-15.656 -9.992,-35.371 -0.786,-51.316 9.206,-15.945 26.43,-25.541 44.834,-24.976 13.47,0.413 25.563,-8.208 29.566,-21.077 21.056,-67.6983 21.056,-140.1955 0,-207.8943 -4.003,-12.8687 -16.096,-21.4897 -29.566,-21.0757 -18.404,0.564 -35.628,-9.032 -44.834,-24.977 -9.206,-15.945 -8.904,-35.66 0.786,-51.316 7.094,-11.459 5.675,-26.242 -3.469,-36.143 C 190.87,-295.403 97.6555,-336.202 0,-336.202 c -97.6555,0 -190.87,40.799 -257.125,112.541 -9.144,9.901 -10.563,24.684 -3.469,36.143 9.69,15.656 9.992,35.371 0.786,51.316 -9.206,15.945 -26.43,25.541 -44.834,24.977 -13.47,-0.414 -25.563,8.207 -29.566,21.0757 -21.056,67.6988 -21.056,140.196 0,207.8943 4.003,12.869 16.096,21.49 29.566,21.077 18.404,-0.565 35.628,9.031 44.834,24.976 9.206,15.945 8.904,35.66 -0.786,51.316"
           fill-rule="evenodd"
           vector-effect="non-scaling-stroke"
           id="path52"
           style="stroke:#ff0000" />
      </g>
      <g
         fill="#f1f3f5"
         fill-opacity="0"
         font-family="'Sans Serif'"
         font-size="31.75px"
         font-style="normal"
         font-weight="400"
         stroke="none"
         transform="translate(648.136,1276.9)"
         id="g53"
         style="fill-rule:evenodd;stroke:#ff0000;stroke-width:1;stroke-linecap:square;stroke-linejoin:bevel">
        <path
           d="m 157,154.798 c 0,8.837 -7.163,16 -16,16 -8.837,0 -16,-7.163 -16,-16 0,-8.836 7.163,-16 16,-16 8.837,0 16,7.164 16,16"
           fill-rule="evenodd"
           vector-effect="non-scaling-stroke"
           id="path53"
           style="stroke:#ff0000" />
      </g>
      <g
         fill="#f1f3f5"
         fill-opacity="0"
         font-family="'Sans Serif'"
         font-size="31.75px"
         font-style="normal"
         font-weight="400"
         stroke="none"
         transform="translate(648.136,1276.9)"
         id="g54"
         style="fill-rule:evenodd;stroke:#ff0000;stroke-width:1;stroke-linecap:square;stroke-linejoin:bevel">
        <path
           d="m -284,13.7981 c 0,8.8365 -7.163,16 -16,16 -8.837,0 -16,-7.1635 -16,-16 0,-8.83657 7.163,-16.00002 16,-16.00002 8.837,0 16,7.16345 16,16.00002"
           fill-rule="evenodd"
           vector-effect="non-scaling-stroke"
           id="path54"
           style="stroke:#ff0000" />
      </g>
      <g
         fill="#f1f3f5"
         fill-opacity="0"
         font-family="'Sans Serif'"
         font-size="31.75px"
         font-style="normal"
         font-weight="400"
         stroke="none"
         transform="translate(648.136,1276.9)"
         id="g55"
         style="fill-rule:evenodd;stroke:#ff0000;stroke-width:1;stroke-linecap:square;stroke-linejoin:bevel">
        <path
           d="m 316,13.7981 c 0,8.8365 -7.163,16 -16,16 -8.837,0 -16,-7.1635 -16,-16 0,-8.83657 7.163,-16.00002 16,-16.00002 8.837,0 16,7.16345 16,16.00002"
           fill-rule="evenodd"
           vector-effect="non-scaling-stroke"
           id="path55"
           style="stroke:#ff0000" />
      </g>
      <g
         fill="#f1f3f5"
         fill-opacity="0"
         font-family="'Sans Serif'"
         font-size="31.75px"
         font-style="normal"
         font-weight="400"
         stroke="none"
         transform="translate(648.136,1276.9)"
         id="g56"
         style="fill-rule:evenodd;stroke:#ff0000;stroke-width:1;stroke-linecap:square;stroke-linejoin:bevel">
        <path
           d="m -125,-127.202 c 0,8.837 -7.163,16 -16,16 -8.837,0 -16,-7.163 -16,-16 0,-8.836 7.163,-16 16,-16 8.837,0 16,7.164 16,16"
           fill-rule="evenodd"
           vector-effect="non-scaling-stroke"
           id="path56"
           style="stroke:#ff0000" />
      </g>
    </g>
  </g>
</svg>
