<?xml version='1.0' encoding='UTF-8' standalone='no'?>
<svg baseProfile="tiny" height="210mm" version="1.2" viewBox="0 0 2970 2100" width="297mm" xmlns="http://www.w3.org/2000/svg" xmlns:cc="http://creativecommons.org/ns#" xmlns:dc="http://purl.org/dc/elements/1.1/" xmlns:freecad="https://www.freecad.org/wiki/index.php?title=Svg_Namespace" xmlns:inkscape="http://www.inkscape.org/namespaces/inkscape" xmlns:rdf="http://www.w3.org/1999/02/22-rdf-syntax-ns#" xmlns:sodipodi="http://sodipodi.sourceforge.net/DTD/sodipodi-0.dtd" xmlns:svg="http://www.w3.org/2000/svg" xmlns:xlink="http://www.w3.org/1999/xlink">
 <title>FreeCAD SVG Export</title>
 <desc>Drawing page: Page exported from FreeCAD document: PCA9685_BoardSupport</desc>
 <defs/>
 <g id="Page" inkscape:groupmode="layer" inkscape:label="TechDraw">
  <g id="Default_Template_A4_Landscape.svg" style="stroke: none;" transform="scale(10.000000, 10.000000)">
   <metadata id="metadata8">
    <rdf:RDF>
     <cc:Work rdf:about="">
      <dc:format>image/svg+xml</dc:format>
      <dc:type rdf:resource="http://purl.org/dc/dcmitype/StillImage"/>
     </cc:Work>
    </rdf:RDF>
   </metadata>
  </g>
  <g fill="none" fill-rule="evenodd" id="DrawingContent" stroke="black" stroke-linecap="square" stroke-linejoin="bevel" stroke-width="1">
   <g fill="#f1f3f5" fill-opacity="0" font-family="Sans Serif" font-size="31.75" font-style="normal" font-weight="400" stroke="none" transform="matrix(1,0,0,1,424.187,230.816)">
    <path d="M400,59.2651 L400,180 L380,200 L-380,200 L-400,180 L-400,59.2651 L-390.147,47.5569 L-343.167,39.4121 C-323.998,36.0888 -310,19.4551 -310,-2.22045e-15 C-310,-19.4551 -323.998,-36.0888 -343.167,-39.4121 L-390.147,-47.5569 L-400,-59.2651 L-400,-180 L-380,-200 L380,-200 L400,-180 L400,-59.2651 L390.147,-47.5569 L343.167,-39.4121 C323.998,-36.0888 310,-19.4551 310,-2.67814e-15 C310,19.4551 323.998,36.0888 343.167,39.4121 L390.147,47.5569 L400,59.2651" fill-rule="evenodd" vector-effect="non-scaling-stroke"/>
   </g>
   <g fill="#f1f3f5" fill-opacity="0" font-family="Sans Serif" font-size="31.75" font-style="normal" font-weight="400" stroke="none" transform="matrix(1,0,0,1,424.187,230.816)">
    <path d="M-72,130 L-122,130 L-122,80 L-72,80 L-72,130" fill-rule="evenodd" vector-effect="non-scaling-stroke"/>
   </g>
   <g fill="#f1f3f5" fill-opacity="0" font-family="Sans Serif" font-size="31.75" font-style="normal" font-weight="400" stroke="none" transform="matrix(1,0,0,1,424.187,230.816)">
    <path d="M-234,-150 C-234,-141.163 -241.163,-134 -250,-134 C-258.837,-134 -266,-141.163 -266,-150 C-266,-158.837 -258.837,-166 -250,-166 C-241.163,-166 -234,-158.837 -234,-150 " fill-rule="evenodd" vector-effect="non-scaling-stroke"/>
   </g>
   <g fill="#f1f3f5" fill-opacity="0" font-family="Sans Serif" font-size="31.75" font-style="normal" font-weight="400" stroke="none" transform="matrix(1,0,0,1,424.187,230.816)">
    <path d="M-234,150 C-234,158.837 -241.163,166 -250,166 C-258.837,166 -266,158.837 -266,150 C-266,141.163 -258.837,134 -250,134 C-241.163,134 -234,141.163 -234,150 " fill-rule="evenodd" vector-effect="non-scaling-stroke"/>
   </g>
   <g fill="#f1f3f5" fill-opacity="0" font-family="Sans Serif" font-size="31.75" font-style="normal" font-weight="400" stroke="none" transform="matrix(1,0,0,1,424.187,230.816)">
    <path d="M266,150 C266,158.837 258.837,166 250,166 C241.163,166 234,158.837 234,150 C234,141.163 241.163,134 250,134 C258.837,134 266,141.163 266,150 " fill-rule="evenodd" vector-effect="non-scaling-stroke"/>
   </g>
   <g fill="#f1f3f5" fill-opacity="0" font-family="Sans Serif" font-size="31.75" font-style="normal" font-weight="400" stroke="none" transform="matrix(1,0,0,1,424.187,230.816)">
    <path d="M266,-150 C266,-141.163 258.837,-134 250,-134 C241.163,-134 234,-141.163 234,-150 C234,-158.837 241.163,-166 250,-166 C258.837,-166 266,-158.837 266,-150 " fill-rule="evenodd" vector-effect="non-scaling-stroke"/>
   </g>
   <g fill="none" font-family="Sans Serif" font-size="31.75" font-style="normal" font-weight="400" stroke="#000000" stroke-linecap="round" stroke-linejoin="bevel" stroke-opacity="1" stroke-width="7" transform="matrix(1,0,0,1,424.187,230.816)">
    <path d="M400,59.2651 L400,180" fill-rule="evenodd" vector-effect="none"/>
   </g>
   <g fill="none" font-family="Sans Serif" font-size="31.75" font-style="normal" font-weight="400" stroke="#000000" stroke-linecap="round" stroke-linejoin="bevel" stroke-opacity="1" stroke-width="7" transform="matrix(1,0,0,1,424.187,230.816)">
    <path d="M400,180 L380,200" fill-rule="evenodd" vector-effect="none"/>
   </g>
   <g fill="none" font-family="Sans Serif" font-size="31.75" font-style="normal" font-weight="400" stroke="#000000" stroke-linecap="round" stroke-linejoin="bevel" stroke-opacity="1" stroke-width="7" transform="matrix(1,0,0,1,424.187,230.816)">
    <path d="M400,59.2651 L390.147,47.5569" fill-rule="evenodd" vector-effect="none"/>
   </g>
   <g fill="none" font-family="Sans Serif" font-size="31.75" font-style="normal" font-weight="400" stroke="#000000" stroke-linecap="round" stroke-linejoin="bevel" stroke-opacity="1" stroke-width="7" transform="matrix(1,0,0,1,424.187,230.816)">
    <path d="M-400,-59.2651 L-400,-180" fill-rule="evenodd" vector-effect="none"/>
   </g>
   <g fill="none" font-family="Sans Serif" font-size="31.75" font-style="normal" font-weight="400" stroke="#000000" stroke-linecap="round" stroke-linejoin="bevel" stroke-opacity="1" stroke-width="7" transform="matrix(1,0,0,1,424.187,230.816)">
    <path d="M-400,-180 L-380,-200" fill-rule="evenodd" vector-effect="none"/>
   </g>
   <g fill="none" font-family="Sans Serif" font-size="31.75" font-style="normal" font-weight="400" stroke="#000000" stroke-linecap="round" stroke-linejoin="bevel" stroke-opacity="1" stroke-width="7" transform="matrix(1,0,0,1,424.187,230.816)">
    <path d="M-400,-59.2651 L-390.147,-47.5569" fill-rule="evenodd" vector-effect="none"/>
   </g>
   <g fill="none" font-family="Sans Serif" font-size="31.75" font-style="normal" font-weight="400" stroke="#000000" stroke-linecap="round" stroke-linejoin="bevel" stroke-opacity="1" stroke-width="7" transform="matrix(1,0,0,1,424.187,230.816)">
    <path d="M-380,-200 L380,-200" fill-rule="evenodd" vector-effect="none"/>
   </g>
   <g fill="none" font-family="Sans Serif" font-size="31.75" font-style="normal" font-weight="400" stroke="#000000" stroke-linecap="round" stroke-linejoin="bevel" stroke-opacity="1" stroke-width="7" transform="matrix(1,0,0,1,424.187,230.816)">
    <path d="M-390.147,-47.5569 L-343.167,-39.4121" fill-rule="evenodd" vector-effect="none"/>
   </g>
   <g fill="none" font-family="Sans Serif" font-size="31.75" font-style="normal" font-weight="400" stroke="#000000" stroke-linecap="round" stroke-linejoin="bevel" stroke-opacity="1" stroke-width="7" transform="matrix(1,0,0,1,424.187,230.816)">
    <path d="M380,-200 L400,-180" fill-rule="evenodd" vector-effect="none"/>
   </g>
   <g fill="none" font-family="Sans Serif" font-size="31.75" font-style="normal" font-weight="400" stroke="#000000" stroke-linecap="round" stroke-linejoin="bevel" stroke-opacity="1" stroke-width="7" transform="matrix(1,0,0,1,424.187,230.816)">
    <path d="M-343.167,-39.4121 C-323.998,-36.0888 -310,-19.4551 -310,-2.22045e-15 C-310,19.4551 -323.998,36.0888 -343.167,39.4121 " fill-rule="evenodd" vector-effect="none"/>
   </g>
   <g fill="none" font-family="Sans Serif" font-size="31.75" font-style="normal" font-weight="400" stroke="#000000" stroke-linecap="round" stroke-linejoin="bevel" stroke-opacity="1" stroke-width="7" transform="matrix(1,0,0,1,424.187,230.816)">
    <path d="M400,-180 L400,-59.2651" fill-rule="evenodd" vector-effect="none"/>
   </g>
   <g fill="none" font-family="Sans Serif" font-size="31.75" font-style="normal" font-weight="400" stroke="#000000" stroke-linecap="round" stroke-linejoin="bevel" stroke-opacity="1" stroke-width="7" transform="matrix(1,0,0,1,424.187,230.816)">
    <path d="M-390.147,47.5569 L-343.167,39.4121" fill-rule="evenodd" vector-effect="none"/>
   </g>
   <g fill="none" font-family="Sans Serif" font-size="31.75" font-style="normal" font-weight="400" stroke="#000000" stroke-linecap="round" stroke-linejoin="bevel" stroke-opacity="1" stroke-width="7" transform="matrix(1,0,0,1,424.187,230.816)">
    <path d="M390.147,-47.5569 L400,-59.2651" fill-rule="evenodd" vector-effect="none"/>
   </g>
   <g fill="none" font-family="Sans Serif" font-size="31.75" font-style="normal" font-weight="400" stroke="#000000" stroke-linecap="round" stroke-linejoin="bevel" stroke-opacity="1" stroke-width="7" transform="matrix(1,0,0,1,424.187,230.816)">
    <path d="M-400,59.2651 L-390.147,47.5569" fill-rule="evenodd" vector-effect="none"/>
   </g>
   <g fill="none" font-family="Sans Serif" font-size="31.75" font-style="normal" font-weight="400" stroke="#000000" stroke-linecap="round" stroke-linejoin="bevel" stroke-opacity="1" stroke-width="7" transform="matrix(1,0,0,1,424.187,230.816)">
    <path d="M390.147,-47.5569 L343.167,-39.4121" fill-rule="evenodd" vector-effect="none"/>
   </g>
   <g fill="none" font-family="Sans Serif" font-size="31.75" font-style="normal" font-weight="400" stroke="#000000" stroke-linecap="round" stroke-linejoin="bevel" stroke-opacity="1" stroke-width="7" transform="matrix(1,0,0,1,424.187,230.816)">
    <path d="M-400,180 L-400,59.2651" fill-rule="evenodd" vector-effect="none"/>
   </g>
   <g fill="none" font-family="Sans Serif" font-size="31.75" font-style="normal" font-weight="400" stroke="#000000" stroke-linecap="round" stroke-linejoin="bevel" stroke-opacity="1" stroke-width="7" transform="matrix(1,0,0,1,424.187,230.816)">
    <path d="M343.167,39.4121 C323.998,36.0888 310,19.4551 310,7.11903e-15 C310,-19.4551 323.998,-36.0888 343.167,-39.4121 " fill-rule="evenodd" vector-effect="none"/>
   </g>
   <g fill="none" font-family="Sans Serif" font-size="31.75" font-style="normal" font-weight="400" stroke="#000000" stroke-linecap="round" stroke-linejoin="bevel" stroke-opacity="1" stroke-width="7" transform="matrix(1,0,0,1,424.187,230.816)">
    <path d="M-380,200 L-400,180" fill-rule="evenodd" vector-effect="none"/>
   </g>
   <g fill="none" font-family="Sans Serif" font-size="31.75" font-style="normal" font-weight="400" stroke="#000000" stroke-linecap="round" stroke-linejoin="bevel" stroke-opacity="1" stroke-width="7" transform="matrix(1,0,0,1,424.187,230.816)">
    <path d="M390.147,47.5569 L343.167,39.4121" fill-rule="evenodd" vector-effect="none"/>
   </g>
   <g fill="none" font-family="Sans Serif" font-size="31.75" font-style="normal" font-weight="400" stroke="#000000" stroke-linecap="round" stroke-linejoin="bevel" stroke-opacity="1" stroke-width="7" transform="matrix(1,0,0,1,424.187,230.816)">
    <path d="M380,200 L-380,200" fill-rule="evenodd" vector-effect="none"/>
   </g>
   <g fill="none" font-family="Sans Serif" font-size="31.75" font-style="normal" font-weight="400" stroke="#000000" stroke-linecap="round" stroke-linejoin="bevel" stroke-opacity="1" stroke-width="7" transform="matrix(1,0,0,1,424.187,230.816)">
    <path d="M-234,-150 C-234,-141.163 -241.163,-134 -250,-134 C-258.837,-134 -266,-141.163 -266,-150 C-266,-158.837 -258.837,-166 -250,-166 C-241.163,-166 -234,-158.837 -234,-150 " fill-rule="evenodd" vector-effect="none"/>
   </g>
   <g fill="none" font-family="Sans Serif" font-size="31.75" font-style="normal" font-weight="400" stroke="#000000" stroke-linecap="round" stroke-linejoin="bevel" stroke-opacity="1" stroke-width="7" transform="matrix(1,0,0,1,424.187,230.816)">
    <path d="M266,-150 C266,-141.163 258.837,-134 250,-134 C241.163,-134 234,-141.163 234,-150 C234,-158.837 241.163,-166 250,-166 C258.837,-166 266,-158.837 266,-150 " fill-rule="evenodd" vector-effect="none"/>
   </g>
   <g fill="none" font-family="Sans Serif" font-size="31.75" font-style="normal" font-weight="400" stroke="#000000" stroke-linecap="round" stroke-linejoin="bevel" stroke-opacity="1" stroke-width="7" transform="matrix(1,0,0,1,424.187,230.816)">
    <path d="M-234,150 C-234,158.837 -241.163,166 -250,166 C-258.837,166 -266,158.837 -266,150 C-266,141.163 -258.837,134 -250,134 C-241.163,134 -234,141.163 -234,150 " fill-rule="evenodd" vector-effect="none"/>
   </g>
   <g fill="none" font-family="Sans Serif" font-size="31.75" font-style="normal" font-weight="400" stroke="#000000" stroke-linecap="round" stroke-linejoin="bevel" stroke-opacity="1" stroke-width="7" transform="matrix(1,0,0,1,424.187,230.816)">
    <path d="M-72,130 L-122,130" fill-rule="evenodd" vector-effect="none"/>
   </g>
   <g fill="none" font-family="Sans Serif" font-size="31.75" font-style="normal" font-weight="400" stroke="#000000" stroke-linecap="round" stroke-linejoin="bevel" stroke-opacity="1" stroke-width="7" transform="matrix(1,0,0,1,424.187,230.816)">
    <path d="M-122,130 L-122,80" fill-rule="evenodd" vector-effect="none"/>
   </g>
   <g fill="none" font-family="Sans Serif" font-size="31.75" font-style="normal" font-weight="400" stroke="#000000" stroke-linecap="round" stroke-linejoin="bevel" stroke-opacity="1" stroke-width="7" transform="matrix(1,0,0,1,424.187,230.816)">
    <path d="M-122,80 L-72,80" fill-rule="evenodd" vector-effect="none"/>
   </g>
   <g fill="none" font-family="Sans Serif" font-size="31.75" font-style="normal" font-weight="400" stroke="#000000" stroke-linecap="round" stroke-linejoin="bevel" stroke-opacity="1" stroke-width="7" transform="matrix(1,0,0,1,424.187,230.816)">
    <path d="M-72,80 L-72,130" fill-rule="evenodd" vector-effect="none"/>
   </g>
   <g fill="none" font-family="Sans Serif" font-size="31.75" font-style="normal" font-weight="400" stroke="#000000" stroke-linecap="round" stroke-linejoin="bevel" stroke-opacity="1" stroke-width="7" transform="matrix(1,0,0,1,424.187,230.816)">
    <path d="M266,150 C266,158.837 258.837,166 250,166 C241.163,166 234,158.837 234,150 C234,141.163 241.163,134 250,134 C258.837,134 266,141.163 266,150 " fill-rule="evenodd" vector-effect="none"/>
   </g>
   <g fill="#ffffff" fill-opacity="1" font-family="Sans Serif" font-size="31.75" font-style="normal" font-weight="400" stroke="#000000" stroke-linecap="round" stroke-linejoin="bevel" stroke-opacity="1" stroke-width="3.5" transform="matrix(1,0,0,1,74.1865,230.816)">
    <path d="M0,17.5 L0,-17.5 M17.5,0 L-17.5,0" fill-rule="evenodd" vector-effect="none"/>
   </g>
   <g fill="#ffffff" fill-opacity="1" font-family="Sans Serif" font-size="31.75" font-style="normal" font-weight="400" stroke="#000000" stroke-linecap="round" stroke-linejoin="bevel" stroke-opacity="1" stroke-width="3.5" transform="matrix(1,0,0,1,774.187,230.816)">
    <path d="M0,17.5 L0,-17.5 M17.5,0 L-17.5,0" fill-rule="evenodd" vector-effect="none"/>
   </g>
   <g fill="#ffffff" fill-opacity="1" font-family="Sans Serif" font-size="31.75" font-style="normal" font-weight="400" stroke="#000000" stroke-linecap="round" stroke-linejoin="bevel" stroke-opacity="1" stroke-width="3.5" transform="matrix(1,0,0,1,174.187,80.8163)">
    <path d="M0,17.5 L0,-17.5 M17.5,0 L-17.5,0" fill-rule="evenodd" vector-effect="none"/>
   </g>
   <g fill="#ffffff" fill-opacity="1" font-family="Sans Serif" font-size="31.75" font-style="normal" font-weight="400" stroke="#000000" stroke-linecap="round" stroke-linejoin="bevel" stroke-opacity="1" stroke-width="3.5" transform="matrix(1,0,0,1,674.187,80.8163)">
    <path d="M0,17.5 L0,-17.5 M17.5,0 L-17.5,0" fill-rule="evenodd" vector-effect="none"/>
   </g>
   <g fill="#ffffff" fill-opacity="1" font-family="Sans Serif" font-size="31.75" font-style="normal" font-weight="400" stroke="#000000" stroke-linecap="round" stroke-linejoin="bevel" stroke-opacity="1" stroke-width="3.5" transform="matrix(1,0,0,1,174.187,380.816)">
    <path d="M0,17.5 L0,-17.5 M17.5,0 L-17.5,0" fill-rule="evenodd" vector-effect="none"/>
   </g>
   <g fill="#ffffff" fill-opacity="1" font-family="Sans Serif" font-size="31.75" font-style="normal" font-weight="400" stroke="#000000" stroke-linecap="round" stroke-linejoin="bevel" stroke-opacity="1" stroke-width="3.5" transform="matrix(1,0,0,1,674.187,380.816)">
    <path d="M0,17.5 L0,-17.5 M17.5,0 L-17.5,0" fill-rule="evenodd" vector-effect="none"/>
   </g>
  </g>
 </g>
</svg>
